<svg width="0" height="0" class="hidden">
  <symbol role="img" xmlns="http://www.w3.org/2000/svg" viewBox="0 0 24 24" id="tryhackme">
    <title>TryHackMe</title>
    <path d="M10.705 0C7.54 0 4.902 2.285 4.349 5.291a4.525 4.525 0 0 0-4.107 4.5 4.525 4.525 0 0 0 4.52 4.52h6.761a.625.625 0 1 0 0-1.25H4.761a3.273 3.273 0 0 1-3.27-3.27A3.273 3.273 0 0 1 6.59 7.08a.625.625 0 0 0 .7-1.035 4.488 4.488 0 0 0-1.68-.69 5.223 5.223 0 0 1 5.096-4.104 5.221 5.221 0 0 1 5.174 4.57 4.489 4.489 0 0 0-.488.305.625.625 0 1 0 .731 1.013 3.245 3.245 0 0 1 1.912-.616 3.278 3.278 0 0 1 3.203 2.61.625.625 0 0 0 1.225-.251 4.533 4.533 0 0 0-4.428-3.61 4.54 4.54 0 0 0-.958.105C16.556 2.328 13.9 0 10.705 0zm5.192 10.64a.925.925 0 0 0-.462.108.913.913 0 0 0-.313.29 1.27 1.27 0 0 0-.175.427 2.39 2.39 0 0 0-.054.514c0 .181.018.353.054.517.036.164.095.307.175.43a.899.899 0 0 0 .313.297c.127.073.281.11.462.11.18 0 .334-.037.46-.11a.897.897 0 0 0 .309-.296c.08-.124.137-.267.173-.431.036-.164.054-.336.054-.517 0-.18-.018-.352-.054-.514a1.271 1.271 0 0 0-.173-.426.901.901 0 0 0-.309-.291.917.917 0 0 0-.46-.108zm6.486 0a.925.925 0 0 0-.462.108.913.913 0 0 0-.313.29 1.27 1.27 0 0 0-.175.427 2.39 2.39 0 0 0-.053.514c0 .181.017.353.053.517.036.164.095.307.175.43a.899.899 0 0 0 .313.297c.127.073.281.11.462.11.18 0 .334-.037.46-.11a.897.897 0 0 0 .31-.296c.078-.124.136-.267.172-.431.036-.164.054-.336.054-.517 0-.18-.018-.352-.054-.514a1.271 1.271 0 0 0-.173-.426.901.901 0 0 0-.308-.291.916.916 0 0 0-.461-.108zm-8.537.068l-.84.618.313.43.476-.368v1.877h.603v-2.557zm6.486 0l-.841.618.314.43.477-.368v1.877h.603v-2.557zm-4.435.445c.08 0 .143.028.193.084.05.057.087.127.114.21.026.083.044.173.054.269a2.541 2.541 0 0 1 0 .533c-.01.097-.028.187-.054.27a.584.584 0 0 1-.114.21.243.243 0 0 1-.193.085.248.248 0 0 1-.195-.086.584.584 0 0 1-.118-.209 1.245 1.245 0 0 1-.056-.27 2.645 2.645 0 0 1 0-.533c.01-.096.029-.186.056-.27a.583.583 0 0 1 .118-.209.25.25 0 0 1 .195-.084zm6.486 0c.08 0 .144.028.193.084.05.057.087.127.114.21.027.083.044.173.054.269a2.541 2.541 0 0 1 0 .533c-.01.097-.027.187-.054.27a.584.584 0 0 1-.114.21.243.243 0 0 1-.193.085.249.249 0 0 1-.195-.086.581.581 0 0 1-.117-.209 1.245 1.245 0 0 1-.056-.27 2.642 2.642 0 0 1 0-.533c.01-.096.028-.186.056-.27a.58.58 0 0 1 .117-.209.25.25 0 0 1 .195-.084zm-2.191 3.51a.93.93 0 0 0-.463.109.908.908 0 0 0-.312.291c-.08.122-.139.263-.175.426a2.383 2.383 0 0 0-.054.514c0 .18.018.353.054.516.036.164.094.308.175.432a.91.91 0 0 0 .312.296.92.92 0 0 0 .463.11c.18 0 .333-.037.46-.11a.892.892 0 0 0 .308-.296 1.32 1.32 0 0 0 .174-.432c.036-.163.054-.335.054-.516 0-.18-.018-.352-.054-.514a1.274 1.274 0 0 0-.174-.426.89.89 0 0 0-.309-.291.918.918 0 0 0-.46-.108zm-6.402.07l-.841.617.314.43.476-.369v1.878h.604v-2.557zm2.125 0l-.841.617.314.43.477-.369v1.878h.603v-2.557zm2.116 0l-.84.617.313.43.477-.369v1.878h.603v-2.557zm2.16.443c.08 0 .144.028.194.085a.605.605 0 0 1 .114.21c.026.083.044.172.053.269a2.639 2.639 0 0 1 0 .532 1.28 1.28 0 0 1-.053.27.585.585 0 0 1-.114.21.244.244 0 0 1-.193.085.25.25 0 0 1-.196-.085.589.589 0 0 1-.117-.21 1.245 1.245 0 0 1-.056-.27 2.597 2.597 0 0 1 0-.532c.01-.097.028-.186.056-.27a.589.589 0 0 1 .117-.209.249.249 0 0 1 .196-.085zm-6.729 3.073a.676.676 0 0 0-.335.078.661.661 0 0 0-.227.211.91.91 0 0 0-.127.31c-.027.118-.04.242-.04.373s.013.256.04.375a.93.93 0 0 0 .127.313.65.65 0 0 0 .227.215c.092.053.204.08.335.08a.655.655 0 0 0 .334-.08.65.65 0 0 0 .225-.215c.057-.09.1-.194.125-.313a1.75 1.75 0 0 0 .04-.375c0-.13-.014-.255-.04-.373a.931.931 0 0 0-.125-.31.658.658 0 0 0-.225-.21.667.667 0 0 0-.334-.08zm3.086 0a.675.675 0 0 0-.336.078.661.661 0 0 0-.226.211.907.907 0 0 0-.127.31 1.69 1.69 0 0 0-.04.373c0 .131.013.256.04.375a.928.928 0 0 0 .127.313c.058.09.134.162.226.215.093.053.205.08.336.08a.655.655 0 0 0 .334-.08.65.65 0 0 0 .224-.215c.058-.09.1-.194.126-.313a1.752 1.752 0 0 0 0-.748.94.94 0 0 0-.126-.31.657.657 0 0 0-.224-.21.667.667 0 0 0-.334-.08zm5.108 0a.675.675 0 0 0-.336.078.661.661 0 0 0-.226.211.91.91 0 0 0-.127.31c-.027.118-.04.242-.04.373s.013.256.04.375a.931.931 0 0 0 .127.313c.058.09.134.162.226.215.093.053.205.08.336.08.13 0 .243-.027.334-.08a.65.65 0 0 0 .224-.215c.058-.09.1-.194.126-.313a1.75 1.75 0 0 0 .04-.375c0-.13-.014-.255-.04-.373a.943.943 0 0 0-.126-.31.657.657 0 0 0-.224-.21.668.668 0 0 0-.334-.08zm-6.658.05l-.61.448.227.311.346-.266v1.362h.438v-1.856zm3.068 0l-.61.448.227.311.346-.266v1.362h.438v-1.856zm5.108 0l-.611.448.228.311.346-.266v1.362h.438v-1.856zm-9.712.322c.058 0 .105.02.14.062a.421.421 0 0 1 .083.151.96.96 0 0 1 .04.196 1.932 1.932 0 0 1 0 .386.954.954 0 0 1-.04.197.421.421 0 0 1-.083.152.176.176 0 0 1-.14.061.18.18 0 0 1-.141-.06.427.427 0 0 1-.085-.153.887.887 0 0 1-.041-.197 1.96 1.96 0 0 1 0-.386.893.893 0 0 1 .04-.196.42.42 0 0 1 .086-.151.181.181 0 0 1 .141-.062zm3.086 0c.058 0 .104.02.14.062a.421.421 0 0 1 .082.151.94.94 0 0 1 .04.196 1.906 1.906 0 0 1 0 .386.93.93 0 0 1-.04.197.421.421 0 0 1-.082.152.176.176 0 0 1-.14.061.18.18 0 0 1-.141-.06.42.42 0 0 1-.086-.153.846.846 0 0 1-.04-.197 1.965 1.965 0 0 1-.011-.195c0-.057.004-.121.01-.191a.849.849 0 0 1 .041-.196.42.42 0 0 1 .086-.151.182.182 0 0 1 .141-.062zm5.108 0c.058 0 .104.02.14.062a.421.421 0 0 1 .082.151.92.92 0 0 1 .04.196 1.963 1.963 0 0 1 0 .386.943.943 0 0 1-.04.197.421.421 0 0 1-.082.152.177.177 0 0 1-.14.061.18.18 0 0 1-.142-.06.437.437 0 0 1-.085-.153.95.95 0 0 1-.04-.197 1.965 1.965 0 0 1-.011-.195c0-.057.004-.121.01-.191a.959.959 0 0 1 .04-.196.47.47 0 0 1 .086-.151.181.181 0 0 1 .142-.062zm-1.684 1.814a.675.675 0 0 0-.336.079.66.66 0 0 0-.227.21.91.91 0 0 0-.127.31 1.731 1.731 0 0 0 0 .748.939.939 0 0 0 .127.314c.059.09.134.162.227.215.093.053.205.08.336.08a.66.66 0 0 0 .334-.08.648.648 0 0 0 .224-.215c.058-.09.1-.195.126-.314a1.737 1.737 0 0 0-.001-.747.928.928 0 0 0-.125-.31.65.65 0 0 0-.224-.211.668.668 0 0 0-.334-.079zm3.063 0a.676.676 0 0 0-.336.079.664.664 0 0 0-.227.21.906.906 0 0 0-.127.31 1.74 1.74 0 0 0 0 .748.936.936 0 0 0 .127.314.66.66 0 0 0 .227.215c.092.053.204.08.336.08a.654.654 0 0 0 .334-.08.648.648 0 0 0 .223-.215c.058-.09.1-.195.126-.314a1.74 1.74 0 0 0 0-.747.928.928 0 0 0-.126-.31.65.65 0 0 0-.223-.211.666.666 0 0 0-.334-.079zm-1.545.05l-.611.448.228.312.346-.267v1.363h.438v-1.856zm-1.518.323c.057 0 .104.02.14.061a.42.42 0 0 1 .082.152.91.91 0 0 1 .04.195 1.966 1.966 0 0 1 0 .387.951.951 0 0 1-.04.197.421.421 0 0 1-.082.152.177.177 0 0 1-.14.06.18.18 0 0 1-.142-.06.428.428 0 0 1-.085-.152.914.914 0 0 1-.04-.197 1.96 1.96 0 0 1-.011-.195c0-.058.003-.122.01-.192a.923.923 0 0 1 .041-.195c.02-.06.048-.11.085-.152a.181.181 0 0 1 .142-.061zm3.063 0c.057 0 .104.02.14.061a.42.42 0 0 1 .082.152.94.94 0 0 1 .04.195 1.91 1.91 0 0 1 0 .387.93.93 0 0 1-.04.197.422.422 0 0 1-.083.152.175.175 0 0 1-.14.06.18.18 0 0 1-.141-.06.423.423 0 0 1-.085-.152.907.907 0 0 1-.04-.197 1.95 1.95 0 0 1 0-.387.915.915 0 0 1 .04-.195c.02-.06.048-.11.085-.152a.182.182 0 0 1 .142-.061zm-9.713.185a.465.465 0 0 0-.232.055.456.456 0 0 0-.157.146.627.627 0 0 0-.089.215 1.168 1.168 0 0 0-.027.259c0 .09.009.177.027.26a.648.648 0 0 0 .089.216c.04.063.093.112.157.149a.459.459 0 0 0 .232.056c.09 0 .168-.02.231-.056a.45.45 0 0 0 .156-.149.67.67 0 0 0 .087-.217 1.218 1.218 0 0 0 0-.518.647.647 0 0 0-.087-.215.448.448 0 0 0-.156-.146.458.458 0 0 0-.23-.055zm1.052.035l-.423.31.158.217.24-.185v.944h.303v-1.286zm-1.052.224c.04 0 .073.014.097.042a.284.284 0 0 1 .057.105.69.69 0 0 1 .028.136c.004.049.007.092.007.133 0 .04-.003.086-.007.135a.684.684 0 0 1-.028.136.285.285 0 0 1-.057.105.123.123 0 0 1-.097.043.125.125 0 0 1-.098-.043.298.298 0 0 1-.059-.105.612.612 0 0 1-.028-.136 1.39 1.39 0 0 1 0-.268.62.62 0 0 1 .028-.136.297.297 0 0 1 .06-.105.125.125 0 0 1 .097-.042zm3.775 1.394a.463.463 0 0 0-.232.054.452.452 0 0 0-.157.146.621.621 0 0 0-.088.214 1.19 1.19 0 0 0 0 .519.641.641 0 0 0 .088.217.46.46 0 0 0 .157.15.458.458 0 0 0 .232.054.454.454 0 0 0 .232-.055.45.45 0 0 0 .155-.149.664.664 0 0 0 .087-.217 1.189 1.189 0 0 0 0-.519.642.642 0 0 0-.087-.214.446.446 0 0 0-.155-.146.459.459 0 0 0-.232-.054zm1.052.034l-.423.31.158.216.24-.185v.945h.303V22.68zm-1.052.223c.04 0 .073.014.098.043a.3.3 0 0 1 .057.105.643.643 0 0 1 .027.135 1.31 1.31 0 0 1 0 .268.654.654 0 0 1-.027.137.307.307 0 0 1-.057.105.124.124 0 0 1-.098.042.125.125 0 0 1-.098-.042.293.293 0 0 1-.059-.105.618.618 0 0 1-.028-.137 1.364 1.364 0 0 1 0-.268.612.612 0 0 1 .028-.135.287.287 0 0 1 .06-.105.123.123 0 0 1 .097-.043z"></path>
  </symbol>
  <symbol role="img" xmlns="http://www.w3.org/2000/svg" viewBox="0 0 24 24" id="hackthebox">
    <title>Hack The Box</title>
    <path d="m22.5106 6.4566.0008-.0123a.888.888 0 0 0-.2717-.6384c-.0084-.0084-.018-.0155-.0267-.0235-.0186-.0166-.0371-.0333-.0572-.0484-.0193-.0147-.04-.0276-.0607-.0406-.0096-.006-.0182-.0131-.0281-.0188L12.4576.1266a.891.891 0 0 0-.9223.0043L1.933 5.6744c-.0107.0062-.0203.014-.0307.0205-.0073.0047-.015.008-.0223.0128-.007.0047-.013.0106-.02.0155a.8769.8769 0 0 0-.147.1333l-.0026.003a.8872.8872 0 0 0-.2218.5847l.0009.014c-.0002.0088-.0015.0176-.0015.0264v11.0708c0 .3277.1802.6288.469.7836l9.5986 5.5417c.0076.0044.0158.0075.0236.0117a.8754.8754 0 0 0 .166.0687c.0134.004.0266.0083.0401.0117a.8793.8793 0 0 0 .072.0142c.0117.0019.0232.0045.0349.006a.835.835 0 0 0 .2157 0c.0117-.0015.0232-.0041.0348-.006a.9.9 0 0 0 .072-.0142c.0135-.0034.0267-.0077.04-.0117a.895.895 0 0 0 .0646-.0217.9134.9134 0 0 0 .1015-.047c.0078-.0042.016-.0072.0236-.0117l9.5986-5.5417a.8888.8888 0 0 0 .469-.7836V6.4779c0-.0071-.0012-.0142-.0014-.0213zM5.2543 6.0822l6.5367-3.774a.4182.4182 0 0 1 .4182 0l6.5366 3.774a.4182.4182 0 0 1 0 .7243l-6.5367 3.774a.4182.4182 0 0 1-.4182 0l-6.5366-3.774a.4182.4182 0 0 1 0-.7243zm5.6134 14.3449a.4172.4172 0 0 1-.626.3613L3.718 17.0218a.4173.4173 0 0 1-.2086-.3613V9.1279a.4172.4172 0 0 1 .6258-.3613l6.524 3.7666a.4172.4172 0 0 1 .2086.3614v7.5325zm9.623-3.7666a.4173.4173 0 0 1-.2086.3613l-6.5239 3.7666a.4172.4172 0 0 1-.6259-.3613v-7.5325c0-.149.0796-.2868.2087-.3614l6.5239-3.7666a.4172.4172 0 0 1 .6258.3613v7.5326z"></path>
  </symbol>
  <symbol role="img" xmlns="http://www.w3.org/2000/svg" viewBox="0 0 24 24" id="bluesky">
    <title>Bluesky</title>
    <path d="M12 10.8c-1.087-2.114-4.046-6.053-6.798-7.995C2.566.944 1.561 1.266.902 1.565.139 1.908 0 3.08 0 3.768c0 .69.378 5.65.624 6.479.815 2.736 3.713 3.66 6.383 3.364.136-.02.275-.039.415-.056-.138.022-.276.04-.415.056-3.912.58-7.387 2.005-2.83 7.078 5.013 5.19 6.87-1.113 7.823-4.308.953 3.195 2.05 9.271 7.733 4.308 4.267-4.308 1.172-6.498-2.74-7.078a8.741 8.741 0 0 1-.415-.056c.14.017.279.036.415.056 2.67.297 5.568-.628 6.383-3.364.246-.828.624-5.79.624-6.478 0-.69-.139-1.861-.902-2.206-.659-.298-1.664-.62-4.3 1.24C16.046 4.748 13.087 8.687 12 10.8Z"></path>
  </symbol>
  <symbol role="img" xmlns="http://www.w3.org/2000/svg" viewBox="0 0 24 24" id="leetcode">
    <title>LeetCode</title>
    <path d="M13.483 0a1.374 1.374 0 0 0-.961.438L7.116 6.226l-3.854 4.126a5.266 5.266 0 0 0-1.209 2.104 5.35 5.35 0 0 0-.125.513 5.527 5.527 0 0 0 .062 2.362 5.83 5.83 0 0 0 .349 1.017 5.938 5.938 0 0 0 1.271 1.818l4.277 4.193.039.038c2.248 2.165 5.852 2.133 8.063-.074l2.396-2.392c.54-.54.54-1.414.003-1.955a1.378 1.378 0 0 0-1.951-.003l-2.396 2.392a3.021 3.021 0 0 1-4.205.038l-.02-.019-4.276-4.193c-.652-.64-.972-1.469-.948-2.263a2.68 2.68 0 0 1 .066-.523 2.545 2.545 0 0 1 .619-1.164L9.13 8.114c1.058-1.134 3.204-1.27 4.43-.278l3.501 2.831c.593.48 1.461.387 1.94-.207a1.384 1.384 0 0 0-.207-1.943l-3.5-2.831c-.8-.647-1.766-1.045-2.774-1.202l2.015-2.158A1.384 1.384 0 0 0 13.483 0zm-2.866 12.815a1.38 1.38 0 0 0-1.38 1.382 1.38 1.38 0 0 0 1.38 1.382H20.79a1.38 1.38 0 0 0 1.38-1.382 1.38 1.38 0 0 0-1.38-1.382z"></path>
  </symbol>
  <symbol role="img" xmlns="http://www.w3.org/2000/svg" viewBox="0 0 24 24" id="youtube">
    <title>YouTube</title>
    <path d="M23.498 6.186a3.016 3.016 0 0 0-2.122-2.136C19.505 3.545 12 3.545 12 3.545s-7.505 0-9.377.505A3.017 3.017 0 0 0 .502 6.186C0 8.07 0 12 0 12s0 3.93.502 5.814a3.016 3.016 0 0 0 2.122 2.136c1.871.505 9.376.505 9.376.505s7.505 0 9.377-.505a3.015 3.015 0 0 0 2.122-2.136C24 15.93 24 12 24 12s0-3.93-.502-5.814zM9.545 15.568V8.432L15.818 12l-6.273 3.568z"></path>
  </symbol>
  <symbol role="img" xmlns="http://www.w3.org/2000/svg" viewBox="0 0 24 24" id="instagram">
    <title>Instagram</title>
    <path d="M7.0301.084c-1.2768.0602-2.1487.264-2.911.5634-.7888.3075-1.4575.72-2.1228 1.3877-.6652.6677-1.075 1.3368-1.3802 2.127-.2954.7638-.4956 1.6365-.552 2.914-.0564 1.2775-.0689 1.6882-.0626 4.947.0062 3.2586.0206 3.6671.0825 4.9473.061 1.2765.264 2.1482.5635 2.9107.308.7889.72 1.4573 1.388 2.1228.6679.6655 1.3365 1.0743 2.1285 1.38.7632.295 1.6361.4961 2.9134.552 1.2773.056 1.6884.069 4.9462.0627 3.2578-.0062 3.668-.0207 4.9478-.0814 1.28-.0607 2.147-.2652 2.9098-.5633.7889-.3086 1.4578-.72 2.1228-1.3881.665-.6682 1.0745-1.3378 1.3795-2.1284.2957-.7632.4966-1.636.552-2.9124.056-1.2809.0692-1.6898.063-4.948-.0063-3.2583-.021-3.6668-.0817-4.9465-.0607-1.2797-.264-2.1487-.5633-2.9117-.3084-.7889-.72-1.4568-1.3876-2.1228C21.2982 1.33 20.628.9208 19.8378.6165 19.074.321 18.2017.1197 16.9244.0645 15.6471.0093 15.236-.005 11.977.0014 8.718.0076 8.31.0215 7.0301.0839m.1402 21.6932c-1.17-.0509-1.8053-.2453-2.2287-.408-.5606-.216-.96-.4771-1.3819-.895-.422-.4178-.6811-.8186-.9-1.378-.1644-.4234-.3624-1.058-.4171-2.228-.0595-1.2645-.072-1.6442-.079-4.848-.007-3.2037.0053-3.583.0607-4.848.05-1.169.2456-1.805.408-2.2282.216-.5613.4762-.96.895-1.3816.4188-.4217.8184-.6814 1.3783-.9003.423-.1651 1.0575-.3614 2.227-.4171 1.2655-.06 1.6447-.072 4.848-.079 3.2033-.007 3.5835.005 4.8495.0608 1.169.0508 1.8053.2445 2.228.408.5608.216.96.4754 1.3816.895.4217.4194.6816.8176.9005 1.3787.1653.4217.3617 1.056.4169 2.2263.0602 1.2655.0739 1.645.0796 4.848.0058 3.203-.0055 3.5834-.061 4.848-.051 1.17-.245 1.8055-.408 2.2294-.216.5604-.4763.96-.8954 1.3814-.419.4215-.8181.6811-1.3783.9-.4224.1649-1.0577.3617-2.2262.4174-1.2656.0595-1.6448.072-4.8493.079-3.2045.007-3.5825-.006-4.848-.0608M16.953 5.5864A1.44 1.44 0 1 0 18.39 4.144a1.44 1.44 0 0 0-1.437 1.4424M5.8385 12.012c.0067 3.4032 2.7706 6.1557 6.173 6.1493 3.4026-.0065 6.157-2.7701 6.1506-6.1733-.0065-3.4032-2.771-6.1565-6.174-6.1498-3.403.0067-6.156 2.771-6.1496 6.1738M8 12.0077a4 4 0 1 1 4.008 3.9921A3.9996 3.9996 0 0 1 8 12.0077"></path>
  </symbol>
  <symbol role="img" xmlns="http://www.w3.org/2000/svg" viewBox="0 0 24 24" id="hackerrank">
    <title>HackerRank</title>
    <path d="M0 0v24h24V0zm9.95 8.002h1.805c.061 0 .111.05.111.111v7.767c0 .061-.05.111-.11.111H9.95c-.061 0-.111-.05-.111-.11v-2.87H7.894v2.87c0 .06-.05.11-.11.11H5.976a.11.11 0 01-.11-.11V8.112c0-.06.05-.11.11-.11h1.806c.061 0 .11.05.11.11v2.869H9.84v-2.87c0-.06.05-.11.11-.11zm2.999 0h5.778c.061 0 .111.05.111.11v7.767a.11.11 0 01-.11.112h-5.78a.11.11 0 01-.11-.11V8.111c0-.06.05-.11.11-.11z"></path>
  </symbol>
  <symbol role="img" xmlns="http://www.w3.org/2000/svg" viewBox="0 0 24 24" id="github">
    <title>GitHub</title>
    <path d="M12 .297c-6.63 0-12 5.373-12 12 0 5.303 3.438 9.8 8.205 11.385.6.113.82-.258.82-.577 0-.285-.01-1.04-.015-2.04-3.338.724-4.042-1.61-4.042-1.61C4.422 18.07 3.633 17.7 3.633 17.7c-1.087-.744.084-.729.084-.729 1.205.084 1.838 1.236 1.838 1.236 1.07 1.835 2.809 1.305 3.495.998.108-.776.417-1.305.76-1.605-2.665-.3-5.466-1.332-5.466-5.93 0-1.31.465-2.38 1.235-3.22-.135-.303-.54-1.523.105-3.176 0 0 1.005-.322 3.3 1.23.96-.267 1.98-.399 3-.405 1.02.006 2.04.138 3 .405 2.28-1.552 3.285-1.23 3.285-1.23.645 1.653.24 2.873.12 3.176.765.84 1.23 1.91 1.23 3.22 0 4.61-2.805 5.625-5.475 5.92.42.36.81 1.096.81 2.22 0 1.606-.015 2.896-.015 3.286 0 .315.21.69.825.57C20.565 22.092 24 17.592 24 12.297c0-6.627-5.373-12-12-12"></path>
  </symbol>
  <symbol role="img" xmlns="http://www.w3.org/2000/svg" viewBox="0 0 24 24" id="gmail">
    <title>Gmail</title>
    <path d="M24 5.457v13.909c0 .904-.732 1.636-1.636 1.636h-3.819V11.73L12 16.64l-6.545-4.91v9.273H1.636A1.636 1.636 0 0 1 0 19.366V5.457c0-2.023 2.309-3.178 3.927-1.964L5.455 4.64 12 9.548l6.545-4.91 1.528-1.145C21.69 2.28 24 3.434 24 5.457z"></path>
  </symbol>
  <symbol role="img" xmlns="http://www.w3.org/2000/svg" viewBox="0 0 24 24" id="readme">
    <title>ReadMe</title>
    <path d="M22.0113 3.269h-5.8219a4.2894 4.2894 0 0 0-4.1854 3.3452A4.2894 4.2894 0 0 0 7.8186 3.269h-5.818A2.0007 2.0007 0 0 0 0 5.2697v10.2434a2.0007 2.0007 0 0 0 2.0007 2.0007h3.7372c4.2574 0 5.5299 1.0244 6.138 3.133a.112.112 0 0 0 .1121.084h.024a.112.112 0 0 0 .112-.084c.6122-2.1086 1.8847-3.133 6.138-3.133h3.7373A2.0007 2.0007 0 0 0 24 15.5131V5.2697a2.0007 2.0007 0 0 0-1.9887-2.0006Zm-11.928 11.0557a.144.144 0 0 1-.144.144H3.2571a.144.144 0 0 1-.144-.144v-.9523a.144.144 0 0 1 .144-.144h6.6822a.144.144 0 0 1 .144.144zm0-2.5368a.144.144 0 0 1-.144.144H3.2571a.144.144 0 0 1-.144-.144v-.9523a.144.144 0 0 1 .144-.144h6.6822a.144.144 0 0 1 .144.144zm0-2.5368a.144.144 0 0 1-.144.144H3.2571a.144.144 0 0 1-.144-.144v-.9524a.144.144 0 0 1 .144-.144h6.6822a.144.144 0 0 1 .144.144zm10.8037 5.0696a.144.144 0 0 1-.144.144h-6.6823a.144.144 0 0 1-.144-.144v-.9523a.144.144 0 0 1 .144-.144h6.6822a.144.144 0 0 1 .144.144zm0-2.5368a.144.144 0 0 1-.144.144h-6.6823a.144.144 0 0 1-.144-.144v-.9523a.144.144 0 0 1 .144-.144h6.6822a.144.144 0 0 1 .144.144zm0-2.5368a.144.144 0 0 1-.144.144h-6.6823a.144.144 0 0 1-.144-.144v-.9484a.144.144 0 0 1 .144-.144h6.6822a.144.144 0 0 1 .144.144v.9524z"></path>
  </symbol>
  <symbol version="1.0" xmlns="http://www.w3.org/2000/svg" preserveAspectRatio="xMidYMid meet" viewBox="0 0 32.000000 32.000000" id="letsdefend">
    <g transform="translate(0.000000,32.000000) scale(0.100000,-0.100000)" fill="#000000" stroke="none">
      <path d="M0 160 l0 -160 160 0 160 0 0 66 c0 58 -2 64 -15 50 -8 -8 -15 -21
-15 -28 0 -14 -91 -41 -100 -29 -7 9 -54 10 -60 1 -9 -14 -100 13 -100 30 0 9
-5 21 -12 28 -8 8 -8 15 1 26 8 10 9 16 1 21 -15 9 -12 25 5 25 8 0 15 9 15
20 0 13 7 20 20 20 11 0 20 3 20 8 0 4 4 13 9 21 8 12 12 12 25 2 13 -11 19
-11 31 -1 12 10 18 10 29 1 11 -9 20 -9 35 -2 16 9 21 7 26 -9 3 -11 15 -20
26 -20 12 0 19 -7 19 -20 0 -11 7 -20 16 -20 11 0 13 -6 9 -19 -3 -11 -1 -22
5 -26 7 -4 10 24 10 84 l0 91 -160 0 -160 0 0 -160z"></path>
      <path d="M90 130 c-11 -11 -20 -24 -20 -29 0 -14 28 -33 34 -23 7 11 96 10
115 -2 8 -5 16 -4 22 5 14 23 10 38 -15 54 -23 15 -56 11 -56 -7 0 -5 -10 -2
-22 6 -29 20 -34 20 -58 -4z m130 -8 c0 -5 -7 -9 -15 -9 -8 0 -15 4 -15 9 0 4
7 8 15 8 8 0 15 -4 15 -8z"></path>
    </g>
  </symbol>
  <symbol role="img" xmlns="http://www.w3.org/2000/svg" viewBox="0 0 24 24" id="linkedin">
    <title>LinkedIn</title>
    <path d="M20.447 20.452h-3.554v-5.569c0-1.328-.027-3.037-1.852-3.037-1.853 0-2.136 1.445-2.136 2.939v5.667H9.351V9h3.414v1.561h.046c.477-.9 1.637-1.85 3.37-1.85 3.601 0 4.267 2.37 4.267 5.455v6.286zM5.337 7.433c-1.144 0-2.063-.926-2.063-2.065 0-1.138.92-2.063 2.063-2.063 1.14 0 2.064.925 2.064 2.063 0 1.139-.925 2.065-2.064 2.065zm1.782 13.019H3.555V9h3.564v11.452zM22.225 0H1.771C.792 0 0 .774 0 1.729v20.542C0 23.227.792 24 1.771 24h20.451C23.2 24 24 23.227 24 22.271V1.729C24 .774 23.2 0 22.222 0h.003z"></path>
  </symbol>
  <symbol role="img" xmlns="http://www.w3.org/2000/svg" viewBox="0 0 24 24" id="twitch">
    <title>Twitch</title>
    <path d="M11.571 4.714h1.715v5.143H11.57zm4.715 0H18v5.143h-1.714zM6 0L1.714 4.286v15.428h5.143V24l4.286-4.286h3.428L22.286 12V0zm14.571 11.143l-3.428 3.428h-3.429l-3 3v-3H6.857V1.714h13.714Z"></path>
  </symbol>
  <symbol role="img" xmlns="http://www.w3.org/2000/svg" viewBox="0 0 24 24" id="rss">
    <title>RSS</title>
    <path d="M19.199 24C19.199 13.467 10.533 4.8 0 4.8V0c13.165 0 24 10.835 24 24h-4.801zM3.291 17.415c1.814 0 3.293 1.479 3.293 3.295 0 1.813-1.485 3.29-3.301 3.29C1.47 24 0 22.526 0 20.71s1.475-3.294 3.291-3.295zM15.909 24h-4.665c0-6.169-5.075-11.245-11.244-11.245V8.09c8.727 0 15.909 7.184 15.909 15.91z"></path>
  </symbol>
</svg>